<svg xmlns="http://www.w3.org/2000/svg" viewBox="0 0 54.77 35.25"><defs><style>.a{fill:#d8ae00;}.b{fill:#ffdd4d;}.c{fill:#fdfcfc;}.d{fill:#bb8460;}</style></defs><path class="a" d="M6.62,18.27c0-.11-.08-.17-.13-.25A6.83,6.83,0,0,1,5.26,14.9a9.26,9.26,0,0,1,0-2.41,6,6,0,0,0,.12-.85A10.81,10.81,0,0,0,4.15,8.59a9.29,9.29,0,0,0-1.64-2.1,2,2,0,0,0-.67-.43A.79.79,0,0,0,.9,6.3,2.8,2.8,0,0,0,.28,7.57a8.47,8.47,0,0,0,.28,5.22,8.16,8.16,0,0,0,2.15,3,14.73,14.73,0,0,0,3.83,2.46Z"/><path class="a" d="M14.08,27.29a.57.57,0,0,0,.34,0c.55-.06,1.1-.09,1.64-.15L17.73,27c.56-.06,1.11-.14,1.66-.24a19.27,19.27,0,0,0,2.37-.52,4.3,4.3,0,0,0,2.17-1.28,8.23,8.23,0,0,0,.53-.78,13.16,13.16,0,0,1,.86-1.11c.39-.45.82-.87,1.26-1.29a12.9,12.9,0,0,1,1.13-1,.27.27,0,0,1,.16-.08c.29,0,.57,0,.85,0a8,8,0,0,1,1.46.15s.09,0,.13,0,0-.09,0-.14a15.32,15.32,0,0,0-1.7-3.26,13.81,13.81,0,0,0-1.28-1.58,11.44,11.44,0,0,0-2.68-2.12,11,11,0,0,0-3.43-1.24,8.81,8.81,0,0,0-1.15-.14l.57.2A10.42,10.42,0,0,1,23.33,14a11.08,11.08,0,0,1,1.15,1A12,12,0,0,1,26,16.88c.21.32.41.64.6,1a.77.77,0,0,1,.1.4,3,3,0,0,1-.19,1.38,4,4,0,0,1-.69,1,14.18,14.18,0,0,0-2.2,3.08,2.77,2.77,0,0,1-1.54,1.35,12.42,12.42,0,0,1-2.09.48c-1.22.25-2.44.51-3.66.79-.5.11-1,.24-1.5.36,0,.09.21.14.18.23s-.18.07-.27.1A4.93,4.93,0,0,0,14.08,27.29Z"/><path class="a" d="M27.86,32.44s-.05-.06-.09-.08l-1.85-.86c-.18-.09-.37,0-.55,0l-.63,0c-1.11.06-2.22.05-3.32,0-.55,0-1.09-.05-1.63-.06a1.32,1.32,0,0,0-.56,0,5.43,5.43,0,0,0-.62.73,2.43,2.43,0,0,0-.18.32.7.7,0,0,0,.41,1.06,3.37,3.37,0,0,0,1.09.23,14.59,14.59,0,0,0,3.43-.21A19.64,19.64,0,0,0,27,32.77Z"/><path class="a" d="M33.37,3.11a2.19,2.19,0,0,0,.63.36q2.27,1.17,4.46,2.47s.09,0,.1.11l.21,0c1.19.12,2.38.3,3.56.53a7.29,7.29,0,0,1,4.59,2.81c.11.11.26.09.39.12s0-.06,0-.09a5,5,0,0,0-.3-.62,5.82,5.82,0,0,0-1-1.32,4.94,4.94,0,0,0-1.81-1.13c-1.22-.45-2.47-.81-3.7-1.23-1.41-.48-2.83-1-4.22-1.52-.48-.19-1-.4-1.44-.61A.11.11,0,0,1,34.8,3a10.35,10.35,0,0,0-1.12.09Z"/><path class="a" d="M32.5,28.82a3.5,3.5,0,0,1-.61.31c-.87.44-1.75.85-2.64,1.25-.45.21-.92.39-1.38.58a.47.47,0,0,0-.16.1,1.1,1.1,0,0,0,.41-.07,27.26,27.26,0,0,0,2.65-.71,25.52,25.52,0,0,0,2.52-1,.26.26,0,0,1,.27,0,1.72,1.72,0,0,0,.43.21c.66-.36,1.31-.75,1.94-1.18a18.91,18.91,0,0,0,3.25-2.81l-.19.1-4.9,2.42c-.48.24-1,.46-1.46.73Z"/><path class="a" d="M53.9,16.25c-.3,0-.41.05-.44.36A2.17,2.17,0,0,0,54,18.19a.38.38,0,0,0,.6.1,1.39,1.39,0,0,0-.51-1.94Z"/><path class="b" d="M5.27,12.49a6,6,0,0,0,.12-.85.33.33,0,0,0,.05-.16A13.48,13.48,0,0,1,6.68,8.25,13.26,13.26,0,0,1,9.85,4.36,17.09,17.09,0,0,1,13.36,2a18.89,18.89,0,0,1,5-1.73A18.47,18.47,0,0,1,21,0a21.1,21.1,0,0,1,4.05.26,23,23,0,0,1,3.84,1,30.93,30.93,0,0,1,4.23,1.81.39.39,0,0,0,.21.06,2.19,2.19,0,0,0,.63.36q2.27,1.17,4.46,2.47s.09,0,.1.11L37.41,6l-.12,0c-.81,0-1.62-.06-2.43,0s-1.69.09-2.53.19-1.77.2-2.65.37A9,9,0,0,0,27.77,7a1.38,1.38,0,0,0-.46.29.43.43,0,0,0,0,.7,3.34,3.34,0,0,0,.68.45,30.74,30.74,0,0,0,4.24,1.75,15.81,15.81,0,0,0,2.73.59,19.25,19.25,0,0,0,2.63.16c.84,0,1.68-.1,2.52-.19a24.36,24.36,0,0,0,3.18-.58,18.61,18.61,0,0,0,2.2-.67,2.3,2.3,0,0,1,1.16-.08c.08,0,.17.05.24,0,.11.11.26.09.39.12s0-.06,0-.09a5,5,0,0,0-.3-.62,5.82,5.82,0,0,0-1-1.32,4.94,4.94,0,0,0-1.81-1.13c-1.22-.45-2.47-.81-3.7-1.23-1.41-.48-2.83-1-4.22-1.52-.48-.19-1-.4-1.44-.61A.11.11,0,0,1,34.8,3a4.75,4.75,0,0,1,.53-.05c.82,0,1.63,0,2.45.05a18.11,18.11,0,0,1,2.43.4,20.65,20.65,0,0,1,2.39.75,10.83,10.83,0,0,1,3.07,1.6,6.69,6.69,0,0,1,1.69,1.94,6.53,6.53,0,0,1,.77,2,.22.22,0,0,0,.16.17,5.38,5.38,0,0,1,.51.2,6.53,6.53,0,0,1,1.92,1.22,3.5,3.5,0,0,1,1.09,1.51c.11.32.21.66.35,1a9.25,9.25,0,0,0,1.22,1.87,6.55,6.55,0,0,1,.52.66c-.3,0-.41.05-.44.36A2.17,2.17,0,0,0,54,18.19a.38.38,0,0,0,.6.1.39.39,0,0,1,0,.15c-.13.41-.26.81-.43,1.21a2.86,2.86,0,0,1-.31.69v0s0,0,0,.05h0a2,2,0,0,1-.38.73,9.14,9.14,0,0,1-2.17,2,11.17,11.17,0,0,1-3.18,1.55,10.57,10.57,0,0,1-4.5.32,13,13,0,0,1-2.24-.52.19.19,0,0,1-.1-.05,9.22,9.22,0,0,1-.74-.79,7.85,7.85,0,0,1-1.34-2.52,13.26,13.26,0,0,0-1.71-3.3,2.7,2.7,0,0,0-1-.93,1,1,0,0,0-.91,0,7.14,7.14,0,0,1-1.61.68c-.77.25-1.56.41-2.34.6a1.57,1.57,0,0,0-.55.19c-.16.1-.16.2,0,.29a2.72,2.72,0,0,0,.5.19,3.94,3.94,0,0,1,1.64,1,5.1,5.1,0,0,1,1.3,2.32,3.52,3.52,0,0,1-.2,2.45A8.88,8.88,0,0,1,33.32,26c-.33.44-.69.86-1,1.33a1.1,1.1,0,0,0-.24.86,1,1,0,0,0,.4.62,3.5,3.5,0,0,1-.61.31c-.87.44-1.75.85-2.64,1.25-.45.21-.92.39-1.38.58a.47.47,0,0,0-.16.1,1.1,1.1,0,0,0,.41-.07,27.26,27.26,0,0,0,2.65-.71,25.52,25.52,0,0,0,2.52-1,.26.26,0,0,1,.27,0,1.72,1.72,0,0,0,.43.21l.6.36A17.73,17.73,0,0,1,37.77,32a2.31,2.31,0,0,1,.65.94,1.71,1.71,0,0,1-.64,1.82,2.35,2.35,0,0,1-1.81.45,9.59,9.59,0,0,1-2.37-.54q-2.62-.9-5.17-2a2,2,0,0,0-.57-.22s-.05-.06-.09-.08l-1.85-.86c-.18-.09-.37,0-.55,0l-.63,0c-1.11.06-2.22.05-3.32,0-.55,0-1.09-.05-1.63-.06a1.32,1.32,0,0,0-.56,0c0-.05-.09,0-.14,0l-.94-.07-1.81-.17L15,31.12l-1.51-.19a4,4,0,0,1-1.08-.24.84.84,0,0,1-.64-.9,1.13,1.13,0,0,1,.15-.47,4.94,4.94,0,0,1,2.19-2,.57.57,0,0,0,.34,0c.55-.06,1.1-.09,1.64-.15L17.73,27c.56-.06,1.11-.14,1.66-.24a19.27,19.27,0,0,0,2.37-.52,4.3,4.3,0,0,0,2.17-1.28,8.23,8.23,0,0,0,.53-.78,13.16,13.16,0,0,1,.86-1.11c.39-.45.82-.87,1.26-1.29a12.9,12.9,0,0,1,1.13-1,.27.27,0,0,1,.16-.08c.29,0,.57,0,.85,0a8,8,0,0,1,1.46.15s.09,0,.13,0,0-.09,0-.14a15.32,15.32,0,0,0-1.7-3.26,13.81,13.81,0,0,0-1.28-1.58,11.44,11.44,0,0,0-2.68-2.12,11,11,0,0,0-3.43-1.24,8.81,8.81,0,0,0-1.15-.14l.57.2A10.42,10.42,0,0,1,23.33,14a11.08,11.08,0,0,1,1.15,1A12,12,0,0,1,26,16.88c.21.32.41.64.6,1a.77.77,0,0,1,.1.4,3,3,0,0,1-.19,1.38,4,4,0,0,1-.69,1,14.18,14.18,0,0,0-2.2,3.08,2.77,2.77,0,0,1-1.54,1.35,12.42,12.42,0,0,1-2.09.48c-1.22.25-2.44.51-3.66.79-.5.11-1,.24-1.5.36a1.94,1.94,0,0,1-.31-.26c-1-.9-2-1.85-3-2.81s-1.92-1.93-2.84-2.94c-.49-.54-1-1.09-1.41-1.66a9,9,0,0,0-.6-.78c0-.11-.08-.17-.13-.25A6.83,6.83,0,0,1,5.26,14.9,9.26,9.26,0,0,1,5.27,12.49Zm44.6,3a4.09,4.09,0,0,0-1.79-1.95l-.32-.14a.74.74,0,0,0-1,.44,2.14,2.14,0,0,0-.05,1.61A2.25,2.25,0,0,0,48.58,17a2.29,2.29,0,0,0,1,0h0s.05,0,.06,0a.67.67,0,0,0,.35-.42A1.63,1.63,0,0,0,49.87,15.52Zm-2.09,6.64a.22.22,0,0,0,.34,0,3.38,3.38,0,0,1,2-1,.2.2,0,0,0,.2-.24.21.21,0,0,0-.27-.19,3.71,3.71,0,0,0-1.51.54,3.63,3.63,0,0,0-.69.55C47.7,22,47.69,22.06,47.78,22.16Zm-1.36-.73a11.64,11.64,0,0,1,1.35-.61,12.09,12.09,0,0,1,2.13-.62c.19,0,.27-.16.21-.32s-.1-.12-.27-.12a8.71,8.71,0,0,0-.92.22,13.32,13.32,0,0,0-2.67,1c-.11.05-.21.12-.2.26S46.24,21.52,46.42,21.43Zm-2.29-2.3a.23.23,0,0,0,.3.19c.53-.07,1.06-.11,1.59-.16.89-.08,1.78-.14,2.68-.18l1.16,0a.44.44,0,0,0,.2,0,.22.22,0,0,0,.14-.23.21.21,0,0,0-.19-.2,2.43,2.43,0,0,0-.27,0h0c-.78,0-1.57.06-2.35.11s-1.35.11-2,.17c-.33,0-.67.06-1,.1A.25.25,0,0,0,44.13,19.13ZM27.61,31.07v0h0Z"/><path class="a" d="M49.74,18.49c-.78,0-1.57.06-2.35.11s-1.35.11-2,.17c-.33,0-.67.06-1,.1a.25.25,0,0,0-.24.26.23.23,0,0,0,.3.19c.53-.07,1.06-.11,1.59-.16.89-.08,1.78-.14,2.68-.18l1.16,0a.44.44,0,0,0,.2,0,.22.22,0,0,0,.14-.23.21.21,0,0,0-.19-.2,2.43,2.43,0,0,0-.27,0Z"/><path class="a" d="M49.84,19.76a8.71,8.71,0,0,0-.92.22,13.32,13.32,0,0,0-2.67,1c-.11.05-.21.12-.2.26s.19.24.37.15a11.64,11.64,0,0,1,1.35-.61,12.09,12.09,0,0,1,2.13-.62c.19,0,.27-.16.21-.32S50,19.76,49.84,19.76Z"/><path class="a" d="M50,20.73a3.76,3.76,0,0,0-1.51.54,3.63,3.63,0,0,0-.69.55c-.11.13-.12.24,0,.34a.22.22,0,0,0,.34,0,3.38,3.38,0,0,1,2-1,.2.2,0,0,0,.2-.24A.21.21,0,0,0,50,20.73Z"/><path class="c" d="M49.68,16.91s-.06,0-.07,0A.05.05,0,0,0,49.68,16.91Z"/><path class="d" d="M27.61,31.07v0h0Z"/><path class="a" d="M41.53,9.31a7,7,0,0,0,.92,0h.07c.07,0,.18,0,.2-.12S42.64,9,42.58,9a4.36,4.36,0,0,0-1.11-.47,13.11,13.11,0,0,0-4.4-.59,10.52,10.52,0,0,0-2.78.42.91.91,0,0,0-.3.14s-.09,0-.09.11.07.08.12.1a4.09,4.09,0,0,0,.85.15c1.59.15,3.17.27,4.76.39C40.26,9.26,40.9,9.31,41.53,9.31Z"/></svg>